<?xml version="1.0" encoding="UTF-8"?>
<svg viewBox="0 0 510 140.92587" xmlns="http://www.w3.org/2000/svg">
 <defs>
  <filter id="i" x="-.0133" y="-.1223" width="1.0265" height="1.2446">
   <feGaussianBlur stdDeviation="2.212"/>
  </filter>
  <filter id="h" x="-.0114" y="-.1223" width="1.0227" height="1.2446">
   <feGaussianBlur stdDeviation="2.212"/>
  </filter>
  <radialGradient id="c" cx="169.81" cy="448.7" r="226.56" gradientTransform="matrix(1.2783 -.26531 .29481 1.4065 -179.55 -153.42)" gradientUnits="userSpaceOnUse">
   <stop stop-color="#fae92d" offset="0"/>
   <stop stop-color="#b9aa04" offset="1"/>
  </radialGradient>
  <radialGradient id="a" cx="-828.77" cy="-407" r="65.714" gradientUnits="userSpaceOnUse">
   <stop stop-color="#fff" offset="0"/>
   <stop stop-color="#ddd" offset="1"/>
  </radialGradient>
  <radialGradient id="b" cx="842.36" cy="501.43" r="226.56" gradientTransform="matrix(1 0 0 1.1119 -164.5 -1076.4)" gradientUnits="userSpaceOnUse">
   <stop stop-color="#060fe1" offset="0"/>
   <stop stop-color="#020886" offset="1"/>
  </radialGradient>
  <radialGradient id="g" cx="842.36" cy="501.43" r="226.56" gradientTransform="matrix(1 0 0 1.1119 -164.5 -1076.4)" gradientUnits="userSpaceOnUse">
   <stop stop-color="#e10606" offset="0"/>
   <stop stop-color="#af0303" offset="1"/>
  </radialGradient>
  <radialGradient id="f" cx="842.36" cy="501.43" r="226.56" gradientTransform="matrix(1 0 0 1.1119 -164.5 -1076.4)" gradientUnits="userSpaceOnUse">
   <stop stop-color="#f99d09" offset="0"/>
   <stop stop-color="#c47904" offset="1"/>
  </radialGradient>
  <radialGradient id="e" cx="842.36" cy="501.43" r="226.56" gradientTransform="matrix(1 0 0 1.1119 -164.5 -1076.4)" gradientUnits="userSpaceOnUse">
   <stop stop-color="#06cde1" offset="0"/>
   <stop stop-color="#0391a0" offset="1"/>
  </radialGradient>
  <radialGradient id="d" cx="842.36" cy="501.43" r="226.56" gradientTransform="matrix(1 0 0 1.1119 -164.5 -1076.4)" gradientUnits="userSpaceOnUse">
   <stop stop-color="#fdb2b2" offset="0"/>
   <stop stop-color="#fc5f5f" offset="1"/>
  </radialGradient>
 </defs>
 <g transform="matrix(1.0669 0 0 1.11 2677.5 834.26)" filter="url(#i)" opacity=".943">
  <path transform="matrix(.05824 -.06519 .06662 .05656 -2495.5 -678.91)" d="m273.5 825.76c-128.84 51.611-275.28-11.063-326.9-139.9s11.063-275.28 139.9-326.9 275.28 11.063 326.9 139.9c32.238 80.476 23.055 163.96-25.907 235.5l-242.8-182.69 128.8 274.09z" fill-rule="evenodd"/>
  <path transform="matrix(.08739 0 0 .08739 -2464.4 -709.52)" d="m237.3 468.11a30 41.429 0 1 1 -0.5728 -35.993l-26.727 18.816z"/>
  <path transform="matrix(.05824 -.06519 .06662 .05656 -2495.5 -678.91)" d="m273.5 825.76c-128.84 51.611-275.28-11.063-326.9-139.9s11.063-275.28 139.9-326.9 275.28 11.063 326.9 139.9c32.238 80.476 23.055 163.96-25.907 235.5l-242.8-182.69 128.8 274.09z" fill-rule="evenodd"/>
  <path transform="matrix(.08739 0 0 .08739 -2464.4 -709.52)" d="m237.3 468.11a30 41.429 0 1 1 -0.5728 -35.993l-26.727 18.816z"/>
  <path transform="matrix(.08739 0 0 .08739 -2231.7 -623.51)" d="m-742.86-384.78a65.714 65.714 0 1 1 -131.43 0 65.714 65.714 0 1 1 131.43 0z" fill-rule="evenodd"/>
  <path transform="matrix(.08739 0 0 .08739 -2231.7 -623.51)" d="m-742.86-384.78a65.714 65.714 0 1 1 -131.43 0 65.714 65.714 0 1 1 131.43 0z" fill-rule="evenodd"/>
  <path transform="matrix(.08739 0 0 .08739 -2284.6 -623.51)" d="m-742.86-384.78a65.714 65.714 0 1 1 -131.43 0 65.714 65.714 0 1 1 131.43 0z" fill-rule="evenodd"/>
  <path transform="matrix(.08739 0 0 .08739 -2284.6 -623.51)" d="m-742.86-384.78a65.714 65.714 0 1 1 -131.43 0 65.714 65.714 0 1 1 131.43 0z" fill-rule="evenodd"/>
  <path transform="matrix(.08739 0 0 .08739 -2337.4 -623.51)" d="m-742.86-384.78a65.714 65.714 0 1 1 -131.43 0 65.714 65.714 0 1 1 131.43 0z" fill-rule="evenodd"/>
  <path transform="matrix(.08739 0 0 .08739 -2337.4 -623.51)" d="m-742.86-384.78a65.714 65.714 0 1 1 -131.43 0 65.714 65.714 0 1 1 131.43 0z" fill-rule="evenodd"/>
  <path transform="matrix(.08739 0 0 .08739 -2178.8 -623.51)" d="m-742.86-384.78a65.714 65.714 0 1 1 -131.43 0 65.714 65.714 0 1 1 131.43 0z" fill-rule="evenodd"/>
  <path transform="matrix(.08739 0 0 .08739 -2178.8 -623.51)" d="m-742.86-384.78a65.714 65.714 0 1 1 -131.43 0 65.714 65.714 0 1 1 131.43 0z" fill-rule="evenodd"/>
  <path transform="matrix(.08739 0 0 .08739 -2258.1 -623.51)" d="m-742.86-384.78a65.714 65.714 0 1 1 -131.43 0 65.714 65.714 0 1 1 131.43 0z" fill-rule="evenodd"/>
  <path transform="matrix(.08739 0 0 .08739 -2258.1 -623.51)" d="m-742.86-384.78a65.714 65.714 0 1 1 -131.43 0 65.714 65.714 0 1 1 131.43 0z" fill-rule="evenodd"/>
  <path transform="matrix(.08739 0 0 .08739 -2311 -623.51)" d="m-742.86-384.78a65.714 65.714 0 1 1 -131.43 0 65.714 65.714 0 1 1 131.43 0z" fill-rule="evenodd"/>
  <path transform="matrix(.08739 0 0 .08739 -2311 -623.51)" d="m-742.86-384.78a65.714 65.714 0 1 1 -131.43 0 65.714 65.714 0 1 1 131.43 0z" fill-rule="evenodd"/>
  <path transform="matrix(.08739 0 0 .08739 -2205.3 -623.51)" d="m-742.86-384.78a65.714 65.714 0 1 1 -131.43 0 65.714 65.714 0 1 1 131.43 0z" fill-rule="evenodd"/>
  <path transform="matrix(.08739 0 0 .08739 -2205.3 -623.51)" d="m-742.86-384.78a65.714 65.714 0 1 1 -131.43 0 65.714 65.714 0 1 1 131.43 0z" fill-rule="evenodd"/>
  <g transform="translate(67.044)">
   <g transform="matrix(.09662 0 0 .08755 -2352.8 -619.61)">
    <path d="m765.49-676.52c-102.89 0-185.72 82.83-185.72 185.72v76.97s-15.478 120.82 0 179.08 30.956 53.964 61.912 53.964 61.912-53.964 61.912-53.964 23.857 53.964 54.813 53.964 69.01-53.964 69.01-53.964 30.956 53.964 61.912 53.964 46.434 4.2977 61.912-53.964-1e-4 -179.08-1e-4 -179.08v-76.97c0-102.89-82.856-185.72-185.75-185.72z" fill-rule="evenodd"/>
    <path transform="translate(474.08 -1003)" d="m237.72 466.77a30 41.429 0 1 1 -1.2526 -35.343l-26.468 19.503z"/>
    <path transform="translate(636.93 -1003)" d="m238.36 464.44a30 41.429 0 1 1 -0.6407 -29.346l-27.72 15.84z"/>
   </g>
   <g transform="matrix(.09662 0 0 .08755 -2352.8 -619.61)">
    <path d="m765.49-676.52c-102.89 0-185.72 82.83-185.72 185.72v76.97s-15.478 120.82 0 179.08 30.956 53.964 61.912 53.964 61.912-53.964 61.912-53.964 23.857 53.964 54.813 53.964 69.01-53.964 69.01-53.964 30.956 53.964 61.912 53.964 46.434 4.2977 61.912-53.964-1e-4 -179.08-1e-4 -179.08v-76.97c0-102.89-82.856-185.72-185.75-185.72z" fill-rule="evenodd"/>
    <path transform="matrix(-1 0 0 1 1055.3 -1003)" d="m237.72 466.77a30 41.429 0 1 1 -1.2526 -35.343l-26.468 19.503z"/>
    <path transform="matrix(-1 0 0 1 892.43 -1003)" d="m238.36 464.44a30 41.429 0 1 1 -0.6407 -29.346l-27.72 15.84z"/>
   </g>
   <g transform="matrix(.09662 0 0 .08755 -2311 -619.61)">
    <path d="m765.49-676.52c-102.89 0-185.72 82.83-185.72 185.72v76.97s-15.478 120.82 0 179.08 30.956 53.964 61.912 53.964 61.912-53.964 61.912-53.964 23.857 53.964 54.813 53.964 69.01-53.964 69.01-53.964 30.956 53.964 61.912 53.964 46.434 4.2977 61.912-53.964-1e-4 -179.08-1e-4 -179.08v-76.97c0-102.89-82.856-185.72-185.75-185.72z" fill-rule="evenodd"/>
    <path transform="translate(474.08 -1003)" d="m237.72 466.77a30 41.429 0 1 1 -1.2526 -35.343l-26.468 19.503z"/>
    <path transform="translate(636.93 -1003)" d="m238.36 464.44a30 41.429 0 1 1 -0.6407 -29.346l-27.72 15.84z"/>
   </g>
   <g transform="matrix(.09662 0 0 .08755 -2311 -619.61)">
    <path d="m765.49-676.52c-102.89 0-185.72 82.83-185.72 185.72v76.97s-15.478 120.82 0 179.08 30.956 53.964 61.912 53.964 61.912-53.964 61.912-53.964 23.857 53.964 54.813 53.964 69.01-53.964 69.01-53.964 30.956 53.964 61.912 53.964 46.434 4.2977 61.912-53.964-1e-4 -179.08-1e-4 -179.08v-76.97c0-102.89-82.856-185.72-185.75-185.72z" fill-rule="evenodd"/>
    <path transform="matrix(-1 0 0 1 1055.3 -1003)" d="m237.72 466.77a30 41.429 0 1 1 -1.2526 -35.343l-26.468 19.503z"/>
    <path transform="matrix(-1 0 0 1 892.43 -1003)" d="m238.36 464.44a30 41.429 0 1 1 -0.6407 -29.346l-27.72 15.84z"/>
   </g>
   <g transform="matrix(.09662 0 0 .08755 -2269.2 -619.61)">
    <path d="m765.49-676.52c-102.89 0-185.72 82.83-185.72 185.72v76.97s-15.478 120.82 0 179.08 30.956 53.964 61.912 53.964 61.912-53.964 61.912-53.964 23.857 53.964 54.813 53.964 69.01-53.964 69.01-53.964 30.956 53.964 61.912 53.964 46.434 4.2977 61.912-53.964-1e-4 -179.08-1e-4 -179.08v-76.97c0-102.89-82.856-185.72-185.75-185.72z" fill-rule="evenodd"/>
    <path transform="translate(474.08 -1003)" d="m237.72 466.77a30 41.429 0 1 1 -1.2526 -35.343l-26.468 19.503z"/>
    <path transform="translate(636.93 -1003)" d="m238.36 464.44a30 41.429 0 1 1 -0.6407 -29.346l-27.72 15.84z"/>
   </g>
   <g transform="matrix(.09662 0 0 .08755 -2269.2 -619.61)">
    <path d="m765.49-676.52c-102.89 0-185.72 82.83-185.72 185.72v76.97s-15.478 120.82 0 179.08 30.956 53.964 61.912 53.964 61.912-53.964 61.912-53.964 23.857 53.964 54.813 53.964 69.01-53.964 69.01-53.964 30.956 53.964 61.912 53.964 46.434 4.2977 61.912-53.964-1e-4 -179.08-1e-4 -179.08v-76.97c0-102.89-82.856-185.72-185.75-185.72z" fill-rule="evenodd"/>
    <path transform="matrix(-1 0 0 1 1055.3 -1003)" d="m237.72 466.77a30 41.429 0 1 1 -1.2526 -35.343l-26.468 19.503z"/>
    <path transform="matrix(-1 0 0 1 892.43 -1003)" d="m238.36 464.44a30 41.429 0 1 1 -0.6407 -29.346l-27.72 15.84z"/>
   </g>
   <g transform="matrix(.09662 0 0 .08755 -2227.4 -619.61)">
    <path d="m765.49-676.52c-102.89 0-185.72 82.83-185.72 185.72v76.97s-15.478 120.82 0 179.08 30.956 53.964 61.912 53.964 61.912-53.964 61.912-53.964 23.857 53.964 54.813 53.964 69.01-53.964 69.01-53.964 30.956 53.964 61.912 53.964 46.434 4.2977 61.912-53.964-1e-4 -179.08-1e-4 -179.08v-76.97c0-102.89-82.856-185.72-185.75-185.72z" fill-rule="evenodd"/>
    <path transform="translate(474.08 -1003)" d="m237.72 466.77a30 41.429 0 1 1 -1.2526 -35.343l-26.468 19.503z"/>
    <path transform="translate(636.93 -1003)" d="m238.36 464.44a30 41.429 0 1 1 -0.6407 -29.346l-27.72 15.84z"/>
   </g>
   <g transform="matrix(.09662 0 0 .08755 -2227.4 -619.61)">
    <path d="m765.49-676.52c-102.89 0-185.72 82.83-185.72 185.72v76.97s-15.478 120.82 0 179.08 30.956 53.964 61.912 53.964 61.912-53.964 61.912-53.964 23.857 53.964 54.813 53.964 69.01-53.964 69.01-53.964 30.956 53.964 61.912 53.964 46.434 4.2977 61.912-53.964-1e-4 -179.08-1e-4 -179.08v-76.97c0-102.89-82.856-185.72-185.75-185.72z" fill-rule="evenodd"/>
    <path transform="matrix(-1 0 0 1 1055.3 -1003)" d="m237.72 466.77a30 41.429 0 1 1 -1.2526 -35.343l-26.468 19.503z"/>
    <path transform="matrix(-1 0 0 1 892.43 -1003)" d="m238.36 464.44a30 41.429 0 1 1 -0.6407 -29.346l-27.72 15.84z"/>
   </g>
   <path d="m-2289.4-651.78 4.1052-3.3285 2.7737 3.7723 3.8833-3.5504 3.3285 4.1051 3.5504-4.549 3.5504 4.2161" fill-rule="evenodd"/>
   <path d="m-2247.6-651.78 4.1052-3.3285 2.7737 3.7723 3.8833-3.5504 3.3285 4.1051 3.5504-4.549 3.5504 4.2161" fill-rule="evenodd"/>
   <path d="m-2205.8-651.78 4.1052-3.3285 2.7737 3.7723 3.8833-3.5504 3.3285 4.1051 3.5504-4.549 3.5504 4.2161" fill-rule="evenodd"/>
   <path d="m-2164.1-651.78 4.1052-3.3285 2.7737 3.7723 3.8833-3.5504 3.3285 4.1051 3.5504-4.549 3.5504 4.2161" fill-rule="evenodd"/>
  </g>
 </g>
 <g stroke="#000" stroke-linecap="round" stroke-linejoin="round" stroke-width="18.378">
  <path transform="matrix(.06214 -.07236 .07107 .06278 13.094 76.669)" d="m273.5 825.76c-128.84 51.611-275.28-11.063-326.9-139.9s11.063-275.28 139.9-326.9 275.28 11.063 326.9 139.9c32.238 80.476 23.055 163.96-25.907 235.5l-242.8-182.69 128.8 274.09z" fill-rule="evenodd"/>
  <path transform="matrix(.09324 0 0 .097 46.253 42.692)" d="m237.3 468.11a30 41.429 0 1 1 -0.5728 -35.993l-26.727 18.816z"/>
 </g>
 <path transform="matrix(.06214 -.07236 .07107 .06278 13.094 76.669)" d="m273.5 825.76c-128.84 51.611-275.28-11.063-326.9-139.9s11.063-275.28 139.9-326.9 275.28 11.063 326.9 139.9c32.238 80.476 23.055 163.96-25.907 235.5l-242.8-182.69 128.8 274.09z" fill="url(#c)" fill-rule="evenodd"/>
 <path transform="matrix(.09324 0 0 .097 46.253 42.692)" d="m237.3 468.11a30 41.429 0 1 1 -0.5728 -35.993l-26.727 18.816z"/>
 <path transform="matrix(.09324 0 0 .097 294.51 138.16)" d="m-742.86-384.78a65.714 65.714 0 1 1 -131.43 0 65.714 65.714 0 1 1 131.43 0z" fill-rule="evenodd" stroke="#000" stroke-linecap="round" stroke-linejoin="round" stroke-width="18.378"/>
 <path transform="matrix(.09324 0 0 .097 294.51 138.16)" d="m-742.86-384.78a65.714 65.714 0 1 1 -131.43 0 65.714 65.714 0 1 1 131.43 0z" fill="url(#a)" fill-rule="evenodd"/>
 <path transform="matrix(.09324 0 0 .097 238.12 138.16)" d="m-742.86-384.78a65.714 65.714 0 1 1 -131.43 0 65.714 65.714 0 1 1 131.43 0z" fill-rule="evenodd" stroke="#000" stroke-linecap="round" stroke-linejoin="round" stroke-width="18.378"/>
 <path transform="matrix(.09324 0 0 .097 238.12 138.16)" d="m-742.86-384.78a65.714 65.714 0 1 1 -131.43 0 65.714 65.714 0 1 1 131.43 0z" fill="url(#a)" fill-rule="evenodd"/>
 <path transform="matrix(.09324 0 0 .097 181.72 138.16)" d="m-742.86-384.78a65.714 65.714 0 1 1 -131.43 0 65.714 65.714 0 1 1 131.43 0z" fill-rule="evenodd" stroke="#000" stroke-linecap="round" stroke-linejoin="round" stroke-width="18.378"/>
 <path transform="matrix(.09324 0 0 .097 181.72 138.16)" d="m-742.86-384.78a65.714 65.714 0 1 1 -131.43 0 65.714 65.714 0 1 1 131.43 0z" fill="url(#a)" fill-rule="evenodd"/>
 <path transform="matrix(.09324 0 0 .097 350.9 138.16)" d="m-742.86-384.78a65.714 65.714 0 1 1 -131.43 0 65.714 65.714 0 1 1 131.43 0z" fill-rule="evenodd" stroke="#000" stroke-linecap="round" stroke-linejoin="round" stroke-width="18.378"/>
 <path transform="matrix(.09324 0 0 .097 350.9 138.16)" d="m-742.86-384.78a65.714 65.714 0 1 1 -131.43 0 65.714 65.714 0 1 1 131.43 0z" fill="url(#a)" fill-rule="evenodd"/>
 <path transform="matrix(.09324 0 0 .097 266.31 138.16)" d="m-742.86-384.78a65.714 65.714 0 1 1 -131.43 0 65.714 65.714 0 1 1 131.43 0z" fill-rule="evenodd" stroke="#000" stroke-linecap="round" stroke-linejoin="round" stroke-width="18.378"/>
 <path transform="matrix(.09324 0 0 .097 266.31 138.16)" d="m-742.86-384.78a65.714 65.714 0 1 1 -131.43 0 65.714 65.714 0 1 1 131.43 0z" fill="url(#a)" fill-rule="evenodd"/>
 <path transform="matrix(.09324 0 0 .097 209.92 138.16)" d="m-742.86-384.78a65.714 65.714 0 1 1 -131.43 0 65.714 65.714 0 1 1 131.43 0z" fill-rule="evenodd" stroke="#000" stroke-linecap="round" stroke-linejoin="round" stroke-width="18.378"/>
 <path transform="matrix(.09324 0 0 .097 209.92 138.16)" d="m-742.86-384.78a65.714 65.714 0 1 1 -131.43 0 65.714 65.714 0 1 1 131.43 0z" fill="url(#a)" fill-rule="evenodd"/>
 <path transform="matrix(.09324 0 0 .097 322.71 138.16)" d="m-742.86-384.78a65.714 65.714 0 1 1 -131.43 0 65.714 65.714 0 1 1 131.43 0z" fill-rule="evenodd" stroke="#000" stroke-linecap="round" stroke-linejoin="round" stroke-width="18.378"/>
 <path transform="matrix(.09324 0 0 .097 322.71 138.16)" d="m-742.86-384.78a65.714 65.714 0 1 1 -131.43 0 65.714 65.714 0 1 1 131.43 0z" fill="url(#a)" fill-rule="evenodd"/>
 <g transform="matrix(1.0669 0 0 1.11 2747.1 830.26)">
  <g transform="matrix(.09662 0 0 .08755 -2352.8 -619.61)" stroke="#000" stroke-linecap="round" stroke-linejoin="round" stroke-width="17.462">
   <path d="m765.49-676.52c-102.89 0-185.72 82.83-185.72 185.72v76.97s-15.478 120.82 0 179.08 30.956 53.964 61.912 53.964 61.912-53.964 61.912-53.964 23.857 53.964 54.813 53.964 69.01-53.964 69.01-53.964 30.956 53.964 61.912 53.964 46.434 4.2977 61.912-53.964-1e-4 -179.08-1e-4 -179.08v-76.97c0-102.89-82.856-185.72-185.75-185.72z" fill-rule="evenodd"/>
   <path transform="translate(474.08 -1003)" d="m237.72 466.77a30 41.429 0 1 1 -1.2526 -35.343l-26.468 19.503z"/>
   <path transform="translate(636.93 -1003)" d="m238.36 464.44a30 41.429 0 1 1 -0.6407 -29.346l-27.72 15.84z"/>
  </g>
  <g transform="matrix(.09662 0 0 .08755 -2352.8 -619.61)">
   <path d="m765.49-676.52c-102.89 0-185.72 82.83-185.72 185.72v76.97s-15.478 120.82 0 179.08 30.956 53.964 61.912 53.964 61.912-53.964 61.912-53.964 23.857 53.964 54.813 53.964 69.01-53.964 69.01-53.964 30.956 53.964 61.912 53.964 46.434 4.2977 61.912-53.964-1e-4 -179.08-1e-4 -179.08v-76.97c0-102.89-82.856-185.72-185.75-185.72z" fill="url(#b)" fill-rule="evenodd"/>
   <path transform="matrix(-1 0 0 1 1055.3 -1003)" d="m237.72 466.77a30 41.429 0 1 1 -1.2526 -35.343l-26.468 19.503z" fill="#fff"/>
   <path transform="matrix(-1 0 0 1 892.43 -1003)" d="m238.36 464.44a30 41.429 0 1 1 -0.6407 -29.346l-27.72 15.84z" fill="#fff"/>
  </g>
  <g transform="matrix(.09662 0 0 .08755 -2311 -619.61)" stroke="#000" stroke-linecap="round" stroke-linejoin="round" stroke-width="17.462">
   <path d="m765.49-676.52c-102.89 0-185.72 82.83-185.72 185.72v76.97s-15.478 120.82 0 179.08 30.956 53.964 61.912 53.964 61.912-53.964 61.912-53.964 23.857 53.964 54.813 53.964 69.01-53.964 69.01-53.964 30.956 53.964 61.912 53.964 46.434 4.2977 61.912-53.964-1e-4 -179.08-1e-4 -179.08v-76.97c0-102.89-82.856-185.72-185.75-185.72z" fill-rule="evenodd"/>
   <path transform="translate(474.08 -1003)" d="m237.72 466.77a30 41.429 0 1 1 -1.2526 -35.343l-26.468 19.503z"/>
   <path transform="translate(636.93 -1003)" d="m238.36 464.44a30 41.429 0 1 1 -0.6407 -29.346l-27.72 15.84z"/>
  </g>
  <g transform="matrix(.09662 0 0 .08755 -2311 -619.61)">
   <path d="m765.49-676.52c-102.89 0-185.72 82.83-185.72 185.72v76.97s-15.478 120.82 0 179.08 30.956 53.964 61.912 53.964 61.912-53.964 61.912-53.964 23.857 53.964 54.813 53.964 69.01-53.964 69.01-53.964 30.956 53.964 61.912 53.964 46.434 4.2977 61.912-53.964-1e-4 -179.08-1e-4 -179.08v-76.97c0-102.89-82.856-185.72-185.75-185.72z" fill="url(#b)" fill-rule="evenodd"/>
   <path transform="matrix(-1 0 0 1 1055.3 -1003)" d="m237.72 466.77a30 41.429 0 1 1 -1.2526 -35.343l-26.468 19.503z" fill="#fff"/>
   <path transform="matrix(-1 0 0 1 892.43 -1003)" d="m238.36 464.44a30 41.429 0 1 1 -0.6407 -29.346l-27.72 15.84z" fill="#fff"/>
  </g>
  <g transform="matrix(.09662 0 0 .08755 -2269.2 -619.61)" stroke="#000" stroke-linecap="round" stroke-linejoin="round" stroke-width="17.462">
   <path d="m765.49-676.52c-102.89 0-185.72 82.83-185.72 185.72v76.97s-15.478 120.82 0 179.08 30.956 53.964 61.912 53.964 61.912-53.964 61.912-53.964 23.857 53.964 54.813 53.964 69.01-53.964 69.01-53.964 30.956 53.964 61.912 53.964 46.434 4.2977 61.912-53.964-1e-4 -179.08-1e-4 -179.08v-76.97c0-102.89-82.856-185.72-185.75-185.72z" fill-rule="evenodd"/>
   <path transform="translate(474.08 -1003)" d="m237.72 466.77a30 41.429 0 1 1 -1.2526 -35.343l-26.468 19.503z"/>
   <path transform="translate(636.93 -1003)" d="m238.36 464.44a30 41.429 0 1 1 -0.6407 -29.346l-27.72 15.84z"/>
  </g>
  <g transform="matrix(.09662 0 0 .08755 -2269.2 -619.61)">
   <path d="m765.49-676.52c-102.89 0-185.72 82.83-185.72 185.72v76.97s-15.478 120.82 0 179.08 30.956 53.964 61.912 53.964 61.912-53.964 61.912-53.964 23.857 53.964 54.813 53.964 69.01-53.964 69.01-53.964 30.956 53.964 61.912 53.964 46.434 4.2977 61.912-53.964-1e-4 -179.08-1e-4 -179.08v-76.97c0-102.89-82.856-185.72-185.75-185.72z" fill="url(#b)" fill-rule="evenodd"/>
   <path transform="matrix(-1 0 0 1 1055.3 -1003)" d="m237.72 466.77a30 41.429 0 1 1 -1.2526 -35.343l-26.468 19.503z" fill="#fff"/>
   <path transform="matrix(-1 0 0 1 892.43 -1003)" d="m238.36 464.44a30 41.429 0 1 1 -0.6407 -29.346l-27.72 15.84z" fill="#fff"/>
  </g>
  <g transform="matrix(.09662 0 0 .08755 -2227.4 -619.61)" stroke="#000" stroke-linecap="round" stroke-linejoin="round" stroke-width="17.462">
   <path d="m765.49-676.52c-102.89 0-185.72 82.83-185.72 185.72v76.97s-15.478 120.82 0 179.08 30.956 53.964 61.912 53.964 61.912-53.964 61.912-53.964 23.857 53.964 54.813 53.964 69.01-53.964 69.01-53.964 30.956 53.964 61.912 53.964 46.434 4.2977 61.912-53.964-1e-4 -179.08-1e-4 -179.08v-76.97c0-102.89-82.856-185.72-185.75-185.72z" fill-rule="evenodd"/>
   <path transform="translate(474.08 -1003)" d="m237.72 466.77a30 41.429 0 1 1 -1.2526 -35.343l-26.468 19.503z"/>
   <path transform="translate(636.93 -1003)" d="m238.36 464.44a30 41.429 0 1 1 -0.6407 -29.346l-27.72 15.84z"/>
  </g>
  <g transform="matrix(.09662 0 0 .08755 -2227.4 -619.61)">
   <path d="m765.49-676.52c-102.89 0-185.72 82.83-185.72 185.72v76.97s-15.478 120.82 0 179.08 30.956 53.964 61.912 53.964 61.912-53.964 61.912-53.964 23.857 53.964 54.813 53.964 69.01-53.964 69.01-53.964 30.956 53.964 61.912 53.964 46.434 4.2977 61.912-53.964-1e-4 -179.08-1e-4 -179.08v-76.97c0-102.89-82.856-185.72-185.75-185.72z" fill="url(#b)" fill-rule="evenodd"/>
   <path transform="matrix(-1 0 0 1 1055.3 -1003)" d="m237.72 466.77a30 41.429 0 1 1 -1.2526 -35.343l-26.468 19.503z" fill="#fff"/>
   <path transform="matrix(-1 0 0 1 892.43 -1003)" d="m238.36 464.44a30 41.429 0 1 1 -0.6407 -29.346l-27.72 15.84z" fill="#fff"/>
  </g>
  <path d="m-2289.4-651.78 4.1052-3.3285 2.7737 3.7723 3.8833-3.5504 3.3285 4.1051 3.5504-4.549 3.5504 4.2161" fill="none" stroke="#fff" stroke-linecap="round" stroke-linejoin="round" stroke-width=".827"/>
  <path d="m-2247.6-651.78 4.1052-3.3285 2.7737 3.7723 3.8833-3.5504 3.3285 4.1051 3.5504-4.549 3.5504 4.2161" fill="none" stroke="#fff" stroke-linecap="round" stroke-linejoin="round" stroke-width=".827"/>
  <path d="m-2205.8-651.78 4.1052-3.3285 2.7737 3.7723 3.8833-3.5504 3.3285 4.1051 3.5504-4.549 3.5504 4.2161" fill="none" stroke="#fff" stroke-linecap="round" stroke-linejoin="round" stroke-width=".827"/>
  <path d="m-2164.1-651.78 4.1052-3.3285 2.7737 3.7723 3.8833-3.5504 3.3285 4.1051 3.5504-4.549 3.5504 4.2161" fill="none" stroke="#fff" stroke-linecap="round" stroke-linejoin="round" stroke-width=".827"/>
 </g>
 <g transform="matrix(-1.0669 0 0 1.11 -2200.2 832.99)" filter="url(#h)" opacity=".943">
  <path transform="matrix(-.05824 -.06519 -.06662 .05656 -2280.3 -738.91)" d="m273.5 825.76c-128.84 51.611-275.28-11.063-326.9-139.9s11.063-275.28 139.9-326.9 275.28 11.063 326.9 139.9c32.238 80.476 23.055 163.96-25.907 235.5l-242.8-182.69 128.8 274.09z" fill-rule="evenodd"/>
  <path transform="matrix(-.08739 0 0 .08739 -2311.4 -769.52)" d="m237.3 468.11a30 41.429 0 1 1 -0.5728 -35.993l-26.727 18.816z"/>
  <path transform="matrix(-.05824 -.06519 -.06662 .05656 -2280.3 -738.91)" d="m273.5 825.76c-128.84 51.611-275.28-11.063-326.9-139.9s11.063-275.28 139.9-326.9 275.28 11.063 326.9 139.9c32.238 80.476 23.055 163.96-25.907 235.5l-242.8-182.69 128.8 274.09z" fill-rule="evenodd"/>
  <path transform="matrix(.08739 0 0 .08739 -2347.8 -769.52)" d="m237.3 468.11a30 41.429 0 1 1 -0.5728 -35.993l-26.727 18.816z"/>
  <g transform="matrix(-.09662 0 0 .08755 -2137.8 -679.61)">
   <path d="m765.49-676.52c-102.89 0-185.72 82.83-185.72 185.72v76.97s-15.478 120.82 0 179.08 30.956 53.964 61.912 53.964 61.912-53.964 61.912-53.964 23.857 53.964 54.813 53.964 69.01-53.964 69.01-53.964 30.956 53.964 61.912 53.964 46.434 4.2977 61.912-53.964-1e-4 -179.08-1e-4 -179.08v-76.97c0-102.89-82.856-185.72-185.75-185.72z" fill-rule="evenodd"/>
   <path transform="translate(474.08 -1003)" d="m237.72 466.77a30 41.429 0 1 1 -1.2526 -35.343l-26.468 19.503z"/>
   <path transform="translate(636.93 -1003)" d="m238.36 464.44a30 41.429 0 1 1 -0.6407 -29.346l-27.72 15.84z"/>
  </g>
  <g transform="matrix(-.09662 0 0 .08755 -2137.8 -679.61)">
   <path d="m765.49-676.52c-102.89 0-185.72 82.83-185.72 185.72v76.97s-15.478 120.82 0 179.08 30.956 53.964 61.912 53.964 61.912-53.964 61.912-53.964 23.857 53.964 54.813 53.964 69.01-53.964 69.01-53.964 30.956 53.964 61.912 53.964 46.434 4.2977 61.912-53.964-1e-4 -179.08-1e-4 -179.08v-76.97c0-102.89-82.856-185.72-185.75-185.72z" fill-rule="evenodd"/>
   <path transform="translate(474.08 -1003)" d="m237.72 466.77a30 41.429 0 1 1 -1.2526 -35.343l-26.468 19.503z"/>
   <path transform="translate(636.93 -1003)" d="m238.36 464.44a30 41.429 0 1 1 -0.6407 -29.346l-27.72 15.84z"/>
  </g>
  <g transform="matrix(-.09662 0 0 .08755 -2096 -679.61)">
   <path d="m765.49-676.52c-102.89 0-185.72 82.83-185.72 185.72v76.97s-15.478 120.82 0 179.08 30.956 53.964 61.912 53.964 61.912-53.964 61.912-53.964 23.857 53.964 54.813 53.964 69.01-53.964 69.01-53.964 30.956 53.964 61.912 53.964 46.434 4.2977 61.912-53.964-1e-4 -179.08-1e-4 -179.08v-76.97c0-102.89-82.856-185.72-185.75-185.72z" fill-rule="evenodd"/>
   <path transform="translate(474.08 -1003)" d="m237.72 466.77a30 41.429 0 1 1 -1.2526 -35.343l-26.468 19.503z"/>
   <path transform="translate(636.93 -1003)" d="m238.36 464.44a30 41.429 0 1 1 -0.6407 -29.346l-27.72 15.84z"/>
  </g>
  <g transform="matrix(-.09662 0 0 .08755 -2096 -679.61)">
   <path d="m765.49-676.52c-102.89 0-185.72 82.83-185.72 185.72v76.97s-15.478 120.82 0 179.08 30.956 53.964 61.912 53.964 61.912-53.964 61.912-53.964 23.857 53.964 54.813 53.964 69.01-53.964 69.01-53.964 30.956 53.964 61.912 53.964 46.434 4.2977 61.912-53.964-1e-4 -179.08-1e-4 -179.08v-76.97c0-102.89-82.856-185.72-185.75-185.72z" fill-rule="evenodd"/>
   <path transform="translate(474.08 -1003)" d="m237.72 466.77a30 41.429 0 1 1 -1.2526 -35.343l-26.468 19.503z"/>
   <path transform="translate(636.93 -1003)" d="m238.36 464.44a30 41.429 0 1 1 -0.6407 -29.346l-27.72 15.84z"/>
  </g>
  <g transform="matrix(-.09662 0 0 .08755 -2054.2 -679.61)">
   <path d="m765.49-676.52c-102.89 0-185.72 82.83-185.72 185.72v76.97s-15.478 120.82 0 179.08 30.956 53.964 61.912 53.964 61.912-53.964 61.912-53.964 23.857 53.964 54.813 53.964 69.01-53.964 69.01-53.964 30.956 53.964 61.912 53.964 46.434 4.2977 61.912-53.964-1e-4 -179.08-1e-4 -179.08v-76.97c0-102.89-82.856-185.72-185.75-185.72z" fill-rule="evenodd"/>
   <path transform="translate(474.08 -1003)" d="m237.72 466.77a30 41.429 0 1 1 -1.2526 -35.343l-26.468 19.503z"/>
   <path transform="translate(636.93 -1003)" d="m238.36 464.44a30 41.429 0 1 1 -0.6407 -29.346l-27.72 15.84z"/>
  </g>
  <g transform="matrix(-.09662 0 0 .08755 -2054.2 -679.61)">
   <path d="m765.49-676.52c-102.89 0-185.72 82.83-185.72 185.72v76.97s-15.478 120.82 0 179.08 30.956 53.964 61.912 53.964 61.912-53.964 61.912-53.964 23.857 53.964 54.813 53.964 69.01-53.964 69.01-53.964 30.956 53.964 61.912 53.964 46.434 4.2977 61.912-53.964-1e-4 -179.08-1e-4 -179.08v-76.97c0-102.89-82.856-185.72-185.75-185.72z" fill-rule="evenodd"/>
   <path transform="translate(474.08 -1003)" d="m237.72 466.77a30 41.429 0 1 1 -1.2526 -35.343l-26.468 19.503z"/>
   <path transform="translate(636.93 -1003)" d="m238.36 464.44a30 41.429 0 1 1 -0.6407 -29.346l-27.72 15.84z"/>
  </g>
  <g transform="matrix(-.09662 0 0 .08755 -2012.5 -679.61)">
   <path d="m765.49-676.52c-102.89 0-185.72 82.83-185.72 185.72v76.97s-15.478 120.82 0 179.08 30.956 53.964 61.912 53.964 61.912-53.964 61.912-53.964 23.857 53.964 54.813 53.964 69.01-53.964 69.01-53.964 30.956 53.964 61.912 53.964 46.434 4.2977 61.912-53.964-1e-4 -179.08-1e-4 -179.08v-76.97c0-102.89-82.856-185.72-185.75-185.72z" fill-rule="evenodd"/>
   <path transform="translate(474.08 -1003)" d="m237.72 466.77a30 41.429 0 1 1 -1.2526 -35.343l-26.468 19.503z"/>
   <path transform="translate(636.93 -1003)" d="m238.36 464.44a30 41.429 0 1 1 -0.6407 -29.346l-27.72 15.84z"/>
  </g>
  <g transform="matrix(-.09662 0 0 .08755 -2012.5 -679.61)">
   <path d="m765.49-676.52c-102.89 0-185.72 82.83-185.72 185.72v76.97s-15.478 120.82 0 179.08 30.956 53.964 61.912 53.964 61.912-53.964 61.912-53.964 23.857 53.964 54.813 53.964 69.01-53.964 69.01-53.964 30.956 53.964 61.912 53.964 46.434 4.2977 61.912-53.964-1e-4 -179.08-1e-4 -179.08v-76.97c0-102.89-82.856-185.72-185.75-185.72z" fill-rule="evenodd"/>
   <path transform="translate(474.08 -1003)" d="m237.72 466.77a30 41.429 0 1 1 -1.2526 -35.343l-26.468 19.503z"/>
   <path transform="translate(636.93 -1003)" d="m238.36 464.44a30 41.429 0 1 1 -0.6407 -29.346l-27.72 15.84z"/>
  </g>
  <path transform="matrix(-.08739 0 0 .08739 -2546.9 -683.51)" d="m-742.86-384.78a65.714 65.714 0 1 1 -131.43 0 65.714 65.714 0 1 1 131.43 0z" fill-rule="evenodd"/>
  <path transform="matrix(-.08739 0 0 .08739 -2546.9 -683.51)" d="m-742.86-384.78a65.714 65.714 0 1 1 -131.43 0 65.714 65.714 0 1 1 131.43 0z" fill-rule="evenodd"/>
  <path transform="matrix(-.08739 0 0 .08739 -2494 -683.51)" d="m-742.86-384.78a65.714 65.714 0 1 1 -131.43 0 65.714 65.714 0 1 1 131.43 0z" fill-rule="evenodd"/>
  <path transform="matrix(-.08739 0 0 .08739 -2494 -683.51)" d="m-742.86-384.78a65.714 65.714 0 1 1 -131.43 0 65.714 65.714 0 1 1 131.43 0z" fill-rule="evenodd"/>
  <path transform="matrix(-.08739 0 0 .08739 -2441.2 -683.51)" d="m-742.86-384.78a65.714 65.714 0 1 1 -131.43 0 65.714 65.714 0 1 1 131.43 0z" fill-rule="evenodd"/>
  <path transform="matrix(-.08739 0 0 .08739 -2441.2 -683.51)" d="m-742.86-384.78a65.714 65.714 0 1 1 -131.43 0 65.714 65.714 0 1 1 131.43 0z" fill-rule="evenodd"/>
  <path transform="matrix(-.08739 0 0 .08739 -2599.7 -683.51)" d="m-742.86-384.78a65.714 65.714 0 1 1 -131.43 0 65.714 65.714 0 1 1 131.43 0z" fill-rule="evenodd"/>
  <path transform="matrix(-.08739 0 0 .08739 -2599.7 -683.51)" d="m-742.86-384.78a65.714 65.714 0 1 1 -131.43 0 65.714 65.714 0 1 1 131.43 0z" fill-rule="evenodd"/>
  <path transform="matrix(-.08739 0 0 .08739 -2520.5 -683.51)" d="m-742.86-384.78a65.714 65.714 0 1 1 -131.43 0 65.714 65.714 0 1 1 131.43 0z" fill-rule="evenodd"/>
  <path transform="matrix(-.08739 0 0 .08739 -2520.5 -683.51)" d="m-742.86-384.78a65.714 65.714 0 1 1 -131.43 0 65.714 65.714 0 1 1 131.43 0z" fill-rule="evenodd"/>
  <path transform="matrix(-.08739 0 0 .08739 -2467.6 -683.51)" d="m-742.86-384.78a65.714 65.714 0 1 1 -131.43 0 65.714 65.714 0 1 1 131.43 0z" fill-rule="evenodd"/>
  <path transform="matrix(-.08739 0 0 .08739 -2467.6 -683.51)" d="m-742.86-384.78a65.714 65.714 0 1 1 -131.43 0 65.714 65.714 0 1 1 131.43 0z" fill-rule="evenodd"/>
  <path transform="matrix(-.17478 0 0 .17478 -2644 -649.89)" d="m-742.86-384.78a65.714 65.714 0 1 1 -131.43 0 65.714 65.714 0 1 1 131.43 0z" fill-rule="evenodd"/>
  <path transform="matrix(-.17478 0 0 .17478 -2644 -649.89)" d="m-742.86-384.78a65.714 65.714 0 1 1 -131.43 0 65.714 65.714 0 1 1 131.43 0z" fill-rule="evenodd"/>
 </g>
 <g stroke="#000" stroke-linecap="round" stroke-linejoin="round" stroke-width="18.378">
  <path transform="matrix(.06214 -.07236 .07107 .06278 234.69 8.8011)" d="m273.5 825.76c-128.84 51.611-275.28-11.063-326.9-139.9s11.063-275.28 139.9-326.9 275.28 11.063 326.9 139.9c32.238 80.476 23.055 163.96-25.907 235.5l-242.8-182.69 128.8 274.09z" fill-rule="evenodd"/>
  <path transform="matrix(.09324 0 0 .097 267.85 -25.176)" d="m237.3 468.11a30 41.429 0 1 1 -0.5728 -35.993l-26.727 18.816z"/>
 </g>
 <path transform="matrix(.06214 -.07236 .07107 .06278 234.69 8.8011)" d="m273.5 825.76c-128.84 51.611-275.28-11.063-326.9-139.9s11.063-275.28 139.9-326.9 275.28 11.063 326.9 139.9c32.238 80.476 23.055 163.96-25.907 235.5l-242.8-182.69 128.8 274.09z" fill="url(#c)" fill-rule="evenodd"/>
 <path transform="matrix(-.09324 0 0 .097 306.76 -25.176)" d="m237.3 468.11a30 41.429 0 1 1 -0.5728 -35.993l-26.727 18.816z"/>
 <g transform="matrix(.10309 0 0 .09718 82.662 74.62)" stroke="#000" stroke-linecap="round" stroke-linejoin="round" stroke-width="17.462">
  <path d="m765.49-676.52c-102.89 0-185.72 82.83-185.72 185.72v76.97s-15.478 120.82 0 179.08 30.956 53.964 61.912 53.964 61.912-53.964 61.912-53.964 23.857 53.964 54.813 53.964 69.01-53.964 69.01-53.964 30.956 53.964 61.912 53.964 46.434 4.2977 61.912-53.964-1e-4 -179.08-1e-4 -179.08v-76.97c0-102.89-82.856-185.72-185.75-185.72z" fill-rule="evenodd"/>
  <path transform="translate(474.08 -1003)" d="m237.72 466.77a30 41.429 0 1 1 -1.2526 -35.343l-26.468 19.503z"/>
  <path transform="translate(636.93 -1003)" d="m238.36 464.44a30 41.429 0 1 1 -0.6407 -29.346l-27.72 15.84z"/>
 </g>
 <g transform="matrix(.10309 0 0 .09718 82.662 74.62)">
  <path d="m765.49-676.52c-102.89 0-185.72 82.83-185.72 185.72v76.97s-15.478 120.82 0 179.08 30.956 53.964 61.912 53.964 61.912-53.964 61.912-53.964 23.857 53.964 54.813 53.964 69.01-53.964 69.01-53.964 30.956 53.964 61.912 53.964 46.434 4.2977 61.912-53.964-1e-4 -179.08-1e-4 -179.08v-76.97c0-102.89-82.856-185.72-185.75-185.72z" fill="url(#g)" fill-rule="evenodd"/>
  <path transform="translate(474.08 -1003)" d="m237.72 466.77a30 41.429 0 1 1 -1.2526 -35.343l-26.468 19.503z"/>
  <path transform="translate(636.93 -1003)" d="m238.36 464.44a30 41.429 0 1 1 -0.6407 -29.346l-27.72 15.84z"/>
 </g>
 <g transform="matrix(.10309 0 0 .09718 38.089 74.62)" stroke="#000" stroke-linecap="round" stroke-linejoin="round" stroke-width="17.462">
  <path d="m765.49-676.52c-102.89 0-185.72 82.83-185.72 185.72v76.97s-15.478 120.82 0 179.08 30.956 53.964 61.912 53.964 61.912-53.964 61.912-53.964 23.857 53.964 54.813 53.964 69.01-53.964 69.01-53.964 30.956 53.964 61.912 53.964 46.434 4.2977 61.912-53.964-1e-4 -179.08-1e-4 -179.08v-76.97c0-102.89-82.856-185.72-185.75-185.72z" fill-rule="evenodd"/>
  <path transform="translate(474.08 -1003)" d="m237.72 466.77a30 41.429 0 1 1 -1.2526 -35.343l-26.468 19.503z"/>
  <path transform="translate(636.93 -1003)" d="m238.36 464.44a30 41.429 0 1 1 -0.6407 -29.346l-27.72 15.84z"/>
 </g>
 <g transform="matrix(.10309 0 0 .09718 38.089 74.62)">
  <path d="m765.49-676.52c-102.89 0-185.72 82.83-185.72 185.72v76.97s-15.478 120.82 0 179.08 30.956 53.964 61.912 53.964 61.912-53.964 61.912-53.964 23.857 53.964 54.813 53.964 69.01-53.964 69.01-53.964 30.956 53.964 61.912 53.964 46.434 4.2977 61.912-53.964-1e-4 -179.08-1e-4 -179.08v-76.97c0-102.89-82.856-185.72-185.75-185.72z" fill="url(#f)" fill-rule="evenodd"/>
  <path transform="translate(474.08 -1003)" d="m237.72 466.77a30 41.429 0 1 1 -1.2526 -35.343l-26.468 19.503z"/>
  <path transform="translate(636.93 -1003)" d="m238.36 464.44a30 41.429 0 1 1 -0.6407 -29.346l-27.72 15.84z"/>
 </g>
 <g transform="matrix(.10309 0 0 .09718 -6.4846 74.62)" stroke="#000" stroke-linecap="round" stroke-linejoin="round" stroke-width="17.462">
  <path d="m765.49-676.52c-102.89 0-185.72 82.83-185.72 185.72v76.97s-15.478 120.82 0 179.08 30.956 53.964 61.912 53.964 61.912-53.964 61.912-53.964 23.857 53.964 54.813 53.964 69.01-53.964 69.01-53.964 30.956 53.964 61.912 53.964 46.434 4.2977 61.912-53.964-1e-4 -179.08-1e-4 -179.08v-76.97c0-102.89-82.856-185.72-185.75-185.72z" fill-rule="evenodd"/>
  <path transform="translate(474.08 -1003)" d="m237.72 466.77a30 41.429 0 1 1 -1.2526 -35.343l-26.468 19.503z"/>
  <path transform="translate(636.93 -1003)" d="m238.36 464.44a30 41.429 0 1 1 -0.6407 -29.346l-27.72 15.84z"/>
 </g>
 <g transform="matrix(.10309 0 0 .09718 -6.4846 74.62)">
  <path d="m765.49-676.52c-102.89 0-185.72 82.83-185.72 185.72v76.97s-15.478 120.82 0 179.08 30.956 53.964 61.912 53.964 61.912-53.964 61.912-53.964 23.857 53.964 54.813 53.964 69.01-53.964 69.01-53.964 30.956 53.964 61.912 53.964 46.434 4.2977 61.912-53.964-1e-4 -179.08-1e-4 -179.08v-76.97c0-102.89-82.856-185.72-185.75-185.72z" fill="url(#e)" fill-rule="evenodd"/>
  <path transform="translate(474.08 -1003)" d="m237.72 466.77a30 41.429 0 1 1 -1.2526 -35.343l-26.468 19.503z"/>
  <path transform="translate(636.93 -1003)" d="m238.36 464.44a30 41.429 0 1 1 -0.6407 -29.346l-27.72 15.84z"/>
 </g>
 <g transform="matrix(.10309 0 0 .09718 -51.059 74.62)" stroke="#000" stroke-linecap="round" stroke-linejoin="round" stroke-width="17.462">
  <path d="m765.49-676.52c-102.89 0-185.72 82.83-185.72 185.72v76.97s-15.478 120.82 0 179.08 30.956 53.964 61.912 53.964 61.912-53.964 61.912-53.964 23.857 53.964 54.813 53.964 69.01-53.964 69.01-53.964 30.956 53.964 61.912 53.964 46.434 4.2977 61.912-53.964-1e-4 -179.08-1e-4 -179.08v-76.97c0-102.89-82.856-185.72-185.75-185.72z" fill-rule="evenodd"/>
  <path transform="translate(474.08 -1003)" d="m237.72 466.77a30 41.429 0 1 1 -1.2526 -35.343l-26.468 19.503z"/>
  <path transform="translate(636.93 -1003)" d="m238.36 464.44a30 41.429 0 1 1 -0.6407 -29.346l-27.72 15.84z"/>
 </g>
 <g transform="matrix(.10309 0 0 .09718 -51.059 74.62)">
  <path d="m765.49-676.52c-102.89 0-185.72 82.83-185.72 185.72v76.97s-15.478 120.82 0 179.08 30.956 53.964 61.912 53.964 61.912-53.964 61.912-53.964 23.857 53.964 54.813 53.964 69.01-53.964 69.01-53.964 30.956 53.964 61.912 53.964 46.434 4.2977 61.912-53.964-1e-4 -179.08-1e-4 -179.08v-76.97c0-102.89-82.856-185.72-185.75-185.72z" fill="url(#d)" fill-rule="evenodd"/>
  <path transform="translate(474.08 -1003)" d="m237.72 466.77a30 41.429 0 1 1 -1.2526 -35.343l-26.468 19.503z"/>
  <path transform="translate(636.93 -1003)" d="m238.36 464.44a30 41.429 0 1 1 -0.6407 -29.346l-27.72 15.84z"/>
 </g>
 <path transform="matrix(.09324 0 0 .097 519.12 70.29)" d="m-742.86-384.78a65.714 65.714 0 1 1 -131.43 0 65.714 65.714 0 1 1 131.43 0z" fill-rule="evenodd" stroke="#000" stroke-linecap="round" stroke-linejoin="round" stroke-width="18.378"/>
 <path transform="matrix(.09324 0 0 .097 519.12 70.29)" d="m-742.86-384.78a65.714 65.714 0 1 1 -131.43 0 65.714 65.714 0 1 1 131.43 0z" fill="url(#a)" fill-rule="evenodd"/>
 <path transform="matrix(.09324 0 0 .097 462.73 70.29)" d="m-742.86-384.78a65.714 65.714 0 1 1 -131.43 0 65.714 65.714 0 1 1 131.43 0z" fill-rule="evenodd" stroke="#000" stroke-linecap="round" stroke-linejoin="round" stroke-width="18.378"/>
 <path transform="matrix(.09324 0 0 .097 462.73 70.29)" d="m-742.86-384.78a65.714 65.714 0 1 1 -131.43 0 65.714 65.714 0 1 1 131.43 0z" fill="url(#a)" fill-rule="evenodd"/>
 <path transform="matrix(.09324 0 0 .097 406.33 70.29)" d="m-742.86-384.78a65.714 65.714 0 1 1 -131.43 0 65.714 65.714 0 1 1 131.43 0z" fill-rule="evenodd" stroke="#000" stroke-linecap="round" stroke-linejoin="round" stroke-width="18.378"/>
 <path transform="matrix(.09324 0 0 .097 406.33 70.29)" d="m-742.86-384.78a65.714 65.714 0 1 1 -131.43 0 65.714 65.714 0 1 1 131.43 0z" fill="url(#a)" fill-rule="evenodd"/>
 <path transform="matrix(.09324 0 0 .097 575.52 70.29)" d="m-742.86-384.78a65.714 65.714 0 1 1 -131.43 0 65.714 65.714 0 1 1 131.43 0z" fill-rule="evenodd" stroke="#000" stroke-linecap="round" stroke-linejoin="round" stroke-width="18.378"/>
 <path transform="matrix(.09324 0 0 .097 575.52 70.29)" d="m-742.86-384.78a65.714 65.714 0 1 1 -131.43 0 65.714 65.714 0 1 1 131.43 0z" fill="url(#a)" fill-rule="evenodd"/>
 <path transform="matrix(.09324 0 0 .097 490.93 70.29)" d="m-742.86-384.78a65.714 65.714 0 1 1 -131.43 0 65.714 65.714 0 1 1 131.43 0z" fill-rule="evenodd" stroke="#000" stroke-linecap="round" stroke-linejoin="round" stroke-width="18.378"/>
 <path transform="matrix(.09324 0 0 .097 490.93 70.29)" d="m-742.86-384.78a65.714 65.714 0 1 1 -131.43 0 65.714 65.714 0 1 1 131.43 0z" fill="url(#a)" fill-rule="evenodd"/>
 <path transform="matrix(.09324 0 0 .097 434.53 70.29)" d="m-742.86-384.78a65.714 65.714 0 1 1 -131.43 0 65.714 65.714 0 1 1 131.43 0z" fill-rule="evenodd" stroke="#000" stroke-linecap="round" stroke-linejoin="round" stroke-width="18.378"/>
 <path transform="matrix(.09324 0 0 .097 434.53 70.29)" d="m-742.86-384.78a65.714 65.714 0 1 1 -131.43 0 65.714 65.714 0 1 1 131.43 0z" fill="url(#a)" fill-rule="evenodd"/>
 <path transform="matrix(.18647 0 0 .194 622.71 107.61)" d="m-742.86-384.78a65.714 65.714 0 1 1 -131.43 0 65.714 65.714 0 1 1 131.43 0z" fill-rule="evenodd" stroke="#000" stroke-linecap="round" stroke-linejoin="round" stroke-width="9.1891"/>
 <path transform="matrix(.18647 0 0 .194 622.71 107.61)" d="m-742.86-384.78a65.714 65.714 0 1 1 -131.43 0 65.714 65.714 0 1 1 131.43 0z" fill="url(#a)" fill-rule="evenodd"/>
</svg>
